<?xml version="1.0" standalone="no"?>
<!DOCTYPE svg PUBLIC "-//W3C//DTD SVG 20010904//EN"
 "http://www.w3.org/TR/2001/REC-SVG-20010904/DTD/svg10.dtd">
<svg version="1.0" xmlns="http://www.w3.org/2000/svg"
 width="500.000000pt" height="179.000000pt" viewBox="0 0 500.000000 179.000000"
 preserveAspectRatio="xMidYMid meet">

<g transform="translate(0.000000,179.000000) scale(0.100000,-0.100000)"
fill="#000000" stroke="none">
<path d="M304 1734 c-58 -56 -56 -74 18 -182 60 -87 283 -316 403 -412 122
-99 336 -238 480 -312 587 -301 1172 -390 1864 -282 297 46 543 122 911 281
133 57 539 260 562 280 9 8 21 12 27 9 14 -9 -32 -83 -102 -165 -78 -92 -139
-203 -139 -251 1 -42 26 -100 44 -100 26 0 144 76 203 131 74 69 91 92 260
334 97 139 125 187 125 212 0 52 -65 178 -111 214 l-40 31 -107 -3 c-320 -11
-542 26 -805 132 -109 44 -115 45 -123 24 -9 -22 66 -164 98 -186 76 -54 275
-132 457 -178 58 -14 106 -31 108 -38 4 -12 -76 -53 -332 -171 -379 -174 -579
-245 -855 -306 -355 -77 -778 -93 -1124 -41 -123 19 -121 19 -105 -2 13 -15
10 -16 -39 -9 -68 9 -264 66 -407 118 -219 80 -567 275 -765 429 -41 32 -87
68 -102 79 -15 12 -25 27 -22 35 3 7 -4 22 -16 32 -95 78 -270 269 -293 320
-5 13 -14 23 -19 23 -4 0 -29 -20 -54 -46z"/>
<path d="M2729 1530 c-46 -14 -78 -41 -100 -87 -18 -37 -21 -56 -17 -115 10
-129 89 -183 231 -155 36 8 37 9 37 52 0 44 -1 44 -26 35 -30 -12 -94 -13
-110 -2 -33 22 -45 107 -23 156 16 34 55 49 99 36 46 -13 45 -14 58 15 19 42
14 52 -32 64 -51 12 -79 13 -117 1z"/>
<path d="M2130 1350 l0 -180 45 0 45 0 0 59 0 58 51 5 c39 4 58 12 81 35 55
55 48 145 -14 183 -26 16 -51 20 -120 20 l-88 0 0 -180z m158 72 c5 -30 -14
-52 -44 -52 -21 0 -24 5 -24 41 0 39 1 40 33 37 25 -2 33 -8 35 -26z"/>
<path d="M2450 1350 l0 -180 48 0 48 0 -1 180 0 180 -47 0 -48 0 0 -180z"/>
<path d="M1190 195 c0 -63 4 -105 10 -105 6 0 10 18 10 40 0 36 2 40 26 40 28
0 65 16 76 34 4 6 8 23 8 38 0 36 -33 58 -87 58 l-43 0 0 -105z m77 79 c48
-13 31 -73 -22 -77 -29 -2 -30 0 -33 41 -3 45 4 50 55 36z"/>
<path d="M1370 195 c0 -63 4 -105 10 -105 6 0 10 23 10 50 l0 50 55 0 55 0 0
-50 c0 -38 4 -50 15 -50 12 0 15 18 15 105 0 87 -3 105 -15 105 -11 0 -15 -12
-15 -45 l0 -45 -55 0 -55 0 0 45 c0 25 -4 45 -10 45 -6 0 -10 -42 -10 -105z"/>
<path d="M1596 269 c-19 -23 -26 -42 -26 -74 0 -65 37 -105 96 -105 64 0 94
34 94 105 0 71 -30 105 -94 105 -37 0 -48 -5 -70 -31z m120 -10 c12 -14 19
-36 19 -64 0 -52 -26 -85 -67 -85 -43 0 -68 32 -68 85 0 76 70 115 116 64z"/>
<path d="M1810 195 l0 -105 60 0 c33 0 60 4 60 10 0 6 -20 10 -45 10 l-45 0 0
40 0 40 40 0 c22 0 40 5 40 10 0 6 -18 10 -40 10 -39 0 -40 1 -40 35 0 35 0
35 45 35 25 0 45 5 45 10 0 6 -27 10 -60 10 l-60 0 0 -105z"/>
<path d="M1970 195 c0 -87 3 -105 15 -105 12 0 15 16 15 82 l0 83 55 -83 c75
-112 85 -109 85 23 0 89 -2 105 -16 105 -13 0 -15 -13 -12 -85 2 -46 0 -81 -3
-77 -4 4 -30 42 -58 85 -71 107 -81 103 -81 -28z"/>
<path d="M2190 195 c0 -87 3 -105 15 -105 12 0 15 18 15 105 0 87 -3 105 -15
105 -12 0 -15 -18 -15 -105z"/>
<path d="M2260 295 c0 -3 11 -23 25 -45 29 -45 30 -58 12 -85 -44 -65 -49 -75
-36 -75 8 0 27 21 43 46 l29 46 26 -46 c14 -25 32 -46 39 -46 17 0 16 3 -19
60 -34 55 -36 43 17 125 14 22 14 25 1 25 -8 0 -26 -18 -39 -41 l-24 -41 -27
41 c-23 35 -47 53 -47 36z"/>
<path d="M2540 195 c0 -63 4 -105 10 -105 6 0 10 42 10 105 0 63 -4 105 -10
105 -6 0 -10 -42 -10 -105z"/>
<path d="M2620 195 c0 -127 18 -142 22 -18 l3 87 55 -87 c77 -122 90 -119 90
18 0 85 -3 105 -15 105 -11 0 -15 -18 -17 -82 l-3 -83 -53 83 c-72 112 -82
109 -82 -23z"/>
<path d="M2840 195 c0 -87 3 -105 15 -105 11 0 15 12 15 45 l0 45 45 0 c25 0
45 5 45 10 0 6 -20 10 -45 10 l-45 0 0 40 0 40 45 0 c25 0 45 5 45 10 0 6 -27
10 -60 10 l-60 0 0 -105z"/>
<path d="M3013 276 c-24 -21 -27 -31 -27 -81 0 -50 3 -60 27 -81 33 -28 91
-32 124 -9 49 34 49 146 0 180 -33 23 -91 19 -124 -9z m103 -4 c18 -11 34 -49
34 -77 0 -28 -16 -66 -34 -77 -21 -15 -66 -8 -87 13 -18 18 -21 30 -16 72 3
33 11 55 23 64 19 14 62 17 80 5z"/>
<path d="M3337 275 c-41 -42 -40 -132 4 -167 23 -20 104 -25 114 -8 4 6 -11
10 -38 10 -58 0 -82 25 -82 87 0 59 31 87 88 80 26 -4 37 -2 34 6 -2 7 -24 13
-48 15 -38 2 -50 -1 -72 -23z"/>
<path d="M3513 195 c-25 -65 -36 -105 -29 -105 7 0 20 16 29 35 14 30 21 35
52 35 31 0 38 -5 52 -35 9 -19 23 -35 30 -35 9 0 7 13 -8 52 -12 29 -30 77
-41 106 -12 28 -26 52 -32 52 -7 0 -30 -47 -53 -105z m70 23 l16 -38 -34 0
-33 0 15 40 c9 22 17 39 19 38 1 -2 9 -20 17 -40z"/>
<path d="M3690 195 c0 -63 4 -105 10 -105 6 0 10 20 10 45 0 39 3 45 20 45 14
0 30 -15 48 -45 15 -25 33 -45 39 -45 18 0 17 5 -12 50 l-25 40 20 20 c46 46
10 100 -67 100 l-43 0 0 -105z m84 72 c11 -8 17 -23 14 -38 -2 -20 -9 -25 -40
-27 l-38 -3 0 40 c0 36 3 41 23 41 13 0 31 -6 41 -13z"/>
<path d="M3870 195 l0 -105 60 0 c33 0 60 4 60 10 0 6 -22 10 -50 10 l-50 0 0
40 0 40 45 0 c25 0 45 5 45 10 0 6 -21 10 -46 10 -45 0 -45 0 -42 33 3 31 5
32 51 35 68 4 58 22 -13 22 l-60 0 0 -105z"/>
<path d="M2430 170 c0 -5 16 -10 35 -10 19 0 35 5 35 10 0 6 -16 10 -35 10
-19 0 -35 -4 -35 -10z"/>
<path d="M3200 170 c0 -5 18 -10 40 -10 22 0 40 5 40 10 0 6 -18 10 -40 10
-22 0 -40 -4 -40 -10z"/>
</g>
</svg>
